<svg width="512" height="512" viewBox="0 0 512 512" fill="none" xmlns="http://www.w3.org/2000/svg">
<path d="M414.635 274.555C411.607 277.582 406.429 275.438 406.429 271.156V196.333H362.417V270.747C362.417 273.816 359.757 275.785 357.135 275.541C357.123 275.539 357.111 275.538 357.099 275.537L357.067 275.533C356.969 275.522 356.87 275.51 356.771 275.493L356.432 275.421C356.413 275.417 356.394 275.411 356.375 275.405C356.361 275.401 356.347 275.396 356.332 275.392C356.182 275.351 356.034 275.301 355.887 275.244C355.292 275.013 354.721 274.654 354.213 274.146L325.785 245.722C324.733 244.67 323.314 244.207 321.94 244.334C321.858 244.342 321.777 244.352 321.696 244.364C321.62 244.375 321.544 244.387 321.468 244.402C321.372 244.421 321.276 244.443 321.182 244.468L321.176 244.469C321.123 244.483 321.07 244.496 321.018 244.512C320.87 244.556 320.723 244.607 320.578 244.666C320.527 244.686 320.477 244.708 320.427 244.731C320.381 244.751 320.336 244.772 320.292 244.793C319.82 245.021 319.379 245.331 318.988 245.722L294.664 270.042C293.572 271.134 293.117 272.62 293.295 274.043C293.306 274.123 293.318 274.204 293.332 274.284C293.41 274.723 293.549 275.153 293.75 275.561C293.977 276.022 294.281 276.455 294.664 276.839L329.498 311.667H439.758L474.593 276.838C476.469 274.961 476.469 271.919 474.593 270.042L450.269 245.722C448.392 243.845 445.349 243.845 443.472 245.722L414.635 274.555Z" fill="#7A573B"/>
<path d="M332.206 221.027C335.234 224.054 340.411 221.91 340.412 217.629V196.333H200.546H147.676V254H200.546C203.2 254 205.352 256.152 205.352 258.806V306.861C205.352 309.515 203.2 311.667 200.546 311.667H298.376L263.542 276.839C261.665 274.962 261.666 271.919 263.542 270.042L318.988 214.606C320.865 212.729 323.908 212.729 325.785 214.606L332.206 221.027Z" fill="#7A573B"/>
<path d="M94.8063 311.667H147.676V254H94.8063C92.1519 254 90 256.152 90 258.806V306.861C90 309.515 92.1519 311.667 94.8063 311.667Z" fill="#7A573B"/>
<path d="M381.23 363.39C383.107 365.267 386.15 365.267 388.027 363.39L439.758 311.667H329.498L381.23 363.39Z" fill="#4D3F33"/>
<path d="M373.573 393.361V390.832C373.573 388.283 372.561 385.839 370.758 384.036L298.376 311.667H200.546H147.676V369.333H200.546C203.2 369.333 205.352 371.485 205.352 374.139V422.194C205.352 424.848 207.504 427 210.158 427H339.929C358.51 427 373.573 411.939 373.573 393.361Z" fill="#4D3F33"/>
<path d="M147.676 422.194V369.333H94.8063C92.1519 369.333 90 371.485 90 374.139V393.361C90 411.939 105.063 427 123.644 427H142.87C145.524 427 147.676 424.848 147.676 422.194Z" fill="#4D3F33"/>
<path d="M94.8063 196.333H147.676V138.667H94.6367C92.1237 138.667 90.015 140.603 90.001 143.116C90.0003 143.235 90 143.353 90 143.472V191.528C90 194.182 92.1519 196.333 94.8063 196.333Z" fill="#99CD61"/>
<path d="M373.573 114.639C373.573 96.0606 358.51 81 339.929 81H152.482C152.363 81 152.245 81.0003 152.126 81.001C149.613 81.0148 147.676 83.1224 147.676 85.635V138.667H200.546C203.2 138.667 205.352 140.818 205.352 143.472V191.528C205.352 194.182 203.2 196.333 200.546 196.333H340.412V122.328C340.412 119.674 342.563 117.522 345.218 117.522H370.689C372.282 117.522 373.573 116.231 373.573 114.639Z" fill="#99CD61"/>
<path d="M406.429 144.33C406.429 141.676 404.277 139.525 401.623 139.525H367.224C365.482 139.525 363.956 140.451 363.113 141.838C363.033 141.97 362.959 142.106 362.891 142.246C362.588 142.877 362.417 143.584 362.417 144.33V196.333H406.429V144.33Z" fill="#99CD61"/>
</svg>
