<svg width="1197" height="512" viewBox="0 0 1197 512" fill="none" xmlns="http://www.w3.org/2000/svg">
<path d="M408.635 274.555C405.607 277.582 400.429 275.438 400.429 271.156V196.333H356.417V270.747C356.417 273.816 353.757 275.785 351.135 275.541C351.123 275.539 351.111 275.538 351.099 275.537L351.067 275.533C350.969 275.522 350.87 275.51 350.771 275.493L350.432 275.421C350.413 275.417 350.394 275.411 350.375 275.405C350.361 275.401 350.347 275.396 350.332 275.392C350.182 275.351 350.034 275.301 349.887 275.244C349.292 275.013 348.721 274.654 348.213 274.146L319.785 245.722C318.733 244.67 317.314 244.207 315.94 244.334C315.858 244.342 315.777 244.352 315.696 244.364C315.62 244.375 315.544 244.387 315.468 244.402C315.372 244.421 315.276 244.443 315.182 244.468L315.176 244.469C315.123 244.483 315.07 244.496 315.018 244.512C314.87 244.556 314.723 244.607 314.578 244.666C314.527 244.686 314.477 244.708 314.427 244.731C314.381 244.751 314.336 244.772 314.292 244.793C313.82 245.021 313.379 245.331 312.988 245.722L288.664 270.042C287.572 271.134 287.117 272.62 287.295 274.043C287.306 274.123 287.318 274.204 287.332 274.284C287.41 274.723 287.549 275.153 287.75 275.561C287.977 276.022 288.281 276.455 288.664 276.839L323.498 311.667H433.758L468.593 276.838C470.469 274.961 470.469 271.919 468.593 270.042L444.269 245.722C442.392 243.845 439.349 243.845 437.472 245.722L408.635 274.555Z" fill="#7A573B"/>
<path d="M326.206 221.027C329.234 224.054 334.411 221.91 334.412 217.629V196.333H194.546H141.676V254H194.546C197.2 254 199.352 256.152 199.352 258.806V306.861C199.352 309.515 197.2 311.667 194.546 311.667H292.376L257.542 276.839C255.665 274.962 255.666 271.919 257.542 270.042L312.988 214.606C314.865 212.729 317.908 212.729 319.785 214.606L326.206 221.027Z" fill="#7A573B"/>
<path d="M88.8063 311.667H141.676V254H88.8063C86.1519 254 84 256.152 84 258.806V306.861C84 309.515 86.1519 311.667 88.8063 311.667Z" fill="#7A573B"/>
<path d="M375.23 363.39C377.107 365.267 380.15 365.267 382.027 363.39L433.758 311.667H323.498L375.23 363.39Z" fill="#4D3F33"/>
<path d="M367.573 393.361V390.832C367.573 388.283 366.561 385.839 364.758 384.036L292.376 311.667H194.546H141.676V369.333H194.546C197.2 369.333 199.352 371.485 199.352 374.139V422.194C199.352 424.848 201.504 427 204.158 427H333.929C352.51 427 367.573 411.939 367.573 393.361Z" fill="#4D3F33"/>
<path d="M141.676 422.194V369.333H88.8063C86.1519 369.333 84 371.485 84 374.139V393.361C84 411.939 99.0631 427 117.644 427H136.87C139.524 427 141.676 424.848 141.676 422.194Z" fill="#4D3F33"/>
<path d="M88.8063 196.333H141.676V138.667H88.6367C86.1237 138.667 84.015 140.603 84.001 143.116C84.0003 143.235 84 143.353 84 143.472V191.528C84 194.182 86.1519 196.333 88.8063 196.333Z" fill="#99CD61"/>
<path d="M367.573 114.639C367.573 96.0606 352.51 81 333.929 81H146.482C146.363 81 146.245 81.0003 146.126 81.001C143.613 81.0148 141.676 83.1224 141.676 85.635V138.667H194.546C197.2 138.667 199.352 140.818 199.352 143.472V191.528C199.352 194.182 197.2 196.333 194.546 196.333H334.412V122.328C334.412 119.674 336.563 117.522 339.218 117.522H364.689C366.282 117.522 367.573 116.231 367.573 114.639Z" fill="#99CD61"/>
<path d="M400.429 144.33C400.429 141.676 398.277 139.525 395.623 139.525H361.224C359.482 139.525 357.956 140.451 357.113 141.838C357.033 141.97 356.959 142.106 356.891 142.246C356.588 142.877 356.417 143.584 356.417 144.33V196.333H400.429V144.33Z" fill="#99CD61"/>
<path d="M534.415 317V207.909H567.44V227.938H568.648C570.92 221.309 574.756 216.077 580.153 212.241C585.551 208.406 591.991 206.489 599.472 206.489C607.047 206.489 613.534 208.43 618.932 212.312C624.33 216.195 627.762 221.403 629.23 227.938H630.366C632.402 221.451 636.38 216.266 642.298 212.384C648.217 208.454 655.201 206.489 663.25 206.489C673.572 206.489 681.953 209.803 688.392 216.432C694.831 223.013 698.051 232.057 698.051 243.562V317H663.321V251.517C663.321 246.072 661.924 241.929 659.131 239.088C656.337 236.2 652.715 234.756 648.264 234.756C643.482 234.756 639.718 236.318 636.972 239.443C634.273 242.521 632.923 246.664 632.923 251.872V317H599.543V251.162C599.543 246.096 598.17 242.095 595.423 239.159C592.677 236.223 589.055 234.756 584.557 234.756C581.527 234.756 578.851 235.49 576.531 236.957C574.211 238.378 572.388 240.414 571.062 243.065C569.784 245.717 569.145 248.842 569.145 252.44V317H534.415ZM719.571 357.909V207.909H753.946V226.588H755.011C756.432 223.274 758.444 220.078 761.048 217C763.7 213.922 767.062 211.413 771.134 209.472C775.253 207.483 780.177 206.489 785.906 206.489C793.482 206.489 800.561 208.477 807.142 212.455C813.771 216.432 819.121 222.563 823.193 230.849C827.265 239.135 829.301 249.694 829.301 262.526C829.301 274.884 827.336 285.229 823.406 293.562C819.524 301.896 814.268 308.146 807.639 312.312C801.058 316.479 793.742 318.562 785.693 318.562C780.201 318.562 775.442 317.663 771.418 315.864C767.393 314.064 764.008 311.697 761.261 308.761C758.562 305.826 756.479 302.677 755.011 299.315H754.301V357.909H719.571ZM753.591 262.455C753.591 268.326 754.372 273.439 755.935 277.795C757.545 282.152 759.841 285.537 762.824 287.952C765.854 290.319 769.476 291.503 773.69 291.503C777.952 291.503 781.574 290.319 784.557 287.952C787.54 285.537 789.789 282.152 791.304 277.795C792.866 273.439 793.648 268.326 793.648 262.455C793.648 256.583 792.866 251.493 791.304 247.185C789.789 242.876 787.54 239.538 784.557 237.17C781.621 234.803 777.999 233.619 773.69 233.619C769.429 233.619 765.807 234.779 762.824 237.099C759.841 239.42 757.545 242.734 755.935 247.043C754.372 251.351 753.591 256.489 753.591 262.455ZM917.316 244.77V271.545H849.987V244.77H917.316ZM981.68 318.562C973.631 318.562 966.316 316.479 959.734 312.312C953.153 308.146 947.897 301.896 943.967 293.562C940.037 285.229 938.072 274.884 938.072 262.526C938.072 249.694 940.108 239.135 944.18 230.849C948.252 222.563 953.579 216.432 960.161 212.455C966.789 208.477 973.915 206.489 981.538 206.489C987.268 206.489 992.168 207.483 996.24 209.472C1000.31 211.413 1003.67 213.922 1006.33 217C1008.98 220.078 1010.99 223.274 1012.36 226.588H1013.07V171.545H1047.8V317H1013.43V299.315H1012.36C1010.89 302.677 1008.81 305.826 1006.11 308.761C1003.41 311.697 1000.03 314.064 995.956 315.864C991.931 317.663 987.173 318.562 981.68 318.562ZM993.754 291.503C997.968 291.503 1001.57 290.319 1004.55 287.952C1007.53 285.537 1009.83 282.152 1011.44 277.795C1013.05 273.439 1013.85 268.326 1013.85 262.455C1013.85 256.489 1013.05 251.351 1011.44 247.043C1009.88 242.734 1007.58 239.42 1004.55 237.099C1001.57 234.779 997.968 233.619 993.754 233.619C989.446 233.619 985.8 234.803 982.817 237.17C979.834 239.538 977.561 242.876 975.999 247.185C974.483 251.493 973.726 256.583 973.726 262.455C973.726 268.326 974.507 273.439 976.07 277.795C977.632 282.152 979.881 285.537 982.817 287.952C985.8 290.319 989.446 291.503 993.754 291.503ZM1104.5 171.545V317H1069.77V171.545H1104.5Z" fill="#7A573B"/>
</svg>
